<svg width="261" height="60" fill="none" xmlns="http://www.w3.org/2000/svg"><g clip-path="url(#clip0)"><path fill-rule="evenodd" clip-rule="evenodd" d="M68.03 15.323c.2-1.169.39-2.363.557-3.582-20.639-15.646-46.925-15.646-67.564 0C2.637 23.508 5.89 32.604 10.29 39.71c-5.157-1.21-7.603-5.091-6.147-10.423-.158.232-.316.464-.466.696-7.87 12.073-2.654 18.475 11.48 16.319 5.598 6.368 12.36 10.647 19.656 13.715 14.874-6.253 27.535-17.53 32.576-41.327 4.517-4.113 8.285-8.309 10.889-12.305a30.784 30.784 0 001.73-2.969c-3.152 3.939-7.262 7.994-11.978 11.907zM48.072 28.89l-.15.083c-.299.166-.599.331-.898.489l-.183.1c-.5.273-.998.538-1.497.796l-.3.157-.39.207-.566.29-.017.009-.508.257-.157.083-.89.448-.2.1-.483.231-.565.274-.025.008-.391.183-.425.199-.474.224-.516.24-.324.15-.715.323-.175.074-.64.282-.242.108-.699.298-.29.125c-.217.091-.442.182-.658.273l-.233.1-.649.265-.2.083-.748.299-.25.1-.582.223-.2.075c-.24.091-.49.182-.731.273l-.242.092c-.25.09-.499.182-.74.265l-.133.05c-.241.083-.474.166-.716.248l-.133.042c-.266.091-.524.174-.782.265l-.158.033c-.274.092-.54.175-.807.266l-.266.083-.083.025-.017.008c-.224.075-.449.14-.673.207h-.009l-.258.075-.075.025-.183.058-.15.041-.1.033-.232.067-.017.008c-.216.058-.432.124-.648.182l-.109.034-.216.058-.033.008-.25.066-.233.058h-.016l-.125.033-.117.034-.207.05-.042.008-.241.058-.042.008-.208.05-.116.025-.125.033-.058.016-.183.042-.242.058-.025.008-.207.05-.1.025-.133.033-.175.041-.058.009-.233.05h-.017l-.216.04-.092.017-.141.025-.233.05-.225.042h-.008l-.216.041-.083.017-.142.024-.15.025-.075.017-.224.041-.216.042-.067.008-.15.025-.141.025-.083.017-.042.008-.174.025-.217.033-.208.033h-.016l-.2.025h-.008l-.208.025-.208.025-.05.008-.158.017h-.025l-.183.024-.183.017h-.025l-.208.025h-.042l-.166.016h-.008c-.134.017-.267.025-.391.034l-.2.016h-.033l-.167.017h-.008l-.383.025-.191.008c-.258.017-.507.025-.757.033h-.017l-.174.008c-.125 0-.242.009-.366.009h-.54c-5.24-7.521-8.294-16.626-9.9-27.048C21.97.48 43.64-.3 61.817 10.77H39.538V9.62H35.08V8.59h4.05a.93.93 0 00.666.29h2.23c.49 0 .915-.414.915-.903v-.523a.922.922 0 00-.915-.912h-2.23a.887.887 0 00-.665.29h-4.06c-.208-1.683-2.67-1.683-2.878 0h-3.985a.918.918 0 00-.665-.29h-2.23a.917.917 0 00-.915.912v.523c0 .497.416.912.916.912h2.229a.93.93 0 00.665-.29h3.968v1.02h-4.458v1.152H15.656v9.387h-.99v2.197h10.622v-2.197h-.99v-1.294h3.428v1.21h11.812v-1.21h24a134.435 134.435 0 01-15.465 10.025z" fill="#006CB6"/><path fill-rule="evenodd" clip-rule="evenodd" d="M15.148 46.285c.483.548.974 1.078 1.464 1.6 2.271-.489-1.322.913 7.42-2.114 8.743-3.018 30.53-15.133 42.226-26.094-11.63 10.282-27.818 19.908-42.217 24.46-3.261 1.037-6.23 1.742-8.893 2.148z" fill="#005591"/><path d="M19.948 24.088l-4.11 4.096c-1.139 1.136-1.696 2.512-1.68 4.138.017 1.625.6 3.001 1.73 4.137 1.14 1.136 2.521 1.708 4.152 1.725 1.622.017 3.01-.547 4.15-1.683 2.288-2.28 2.213-5.987-.058-8.25l-4.184-4.163zm3.194 12.023c1.057-2.13 1.157-4.892.333-7.114 2.021 1.981 1.863 5.323-.333 7.114z" fill="#00A0E8"/></g><path d="M94.558 29.264c-2.23 0-4.092-.704-5.588-2.112-1.481-1.423-2.222-3.249-2.222-5.478 0-2.23.74-4.048 2.222-5.456 1.496-1.423 3.359-2.134 5.588-2.134 2.743 0 4.789 1.195 6.138 3.586l-2.684 1.32a3.935 3.935 0 00-1.43-1.518 3.574 3.574 0 00-2.024-.616c-1.335 0-2.435.455-3.3 1.364-.865.91-1.298 2.06-1.298 3.454 0 1.393.433 2.545 1.298 3.454.865.91 1.965 1.364 3.3 1.364a3.67 3.67 0 002.024-.594 3.891 3.891 0 001.43-1.54l2.684 1.298c-1.393 2.405-3.44 3.608-6.138 3.608zM116.089 29h-3.564l-.902-2.486h-6.292L104.407 29h-3.564l5.676-14.674h3.916L116.089 29zm-5.324-5.236l-2.288-6.314-2.288 6.314h4.576zM130.644 29h-3.146v-6.16h-6.93V29h-3.124V14.326h3.124v5.764h6.93v-5.764h3.146V29zm9.426 0h-3.146V17.076h-4.29v-2.75h11.704v2.75h-4.268V29zm16.655 0h-10.384V14.326h10.384v2.75h-7.26v3.102h7.106v2.75h-7.106v3.322h7.26V29zm15.752 0h-3.74l-3.674-5.368L161.367 29h-3.718l5.324-7.524-4.994-7.15h3.718l3.366 5.016 3.322-5.016h3.762l-4.994 7.128L172.477 29zm14.585 0h-3.146v-6.16h-6.93V29h-3.124V14.326h3.124v5.764h6.93v-5.764h3.146V29zm5.906 0h-3.014V14.326h3.124v9.482l6.798-9.482h3.212V29h-3.124v-9.834L192.968 29zm25.575 0h-3.85l-4.444-5.874-1.144 1.364V29h-3.124V14.326h3.124v6.556l5.192-6.556h3.85l-5.83 6.886L218.543 29z" fill="#0F0F0F"/><path d="M226.92 29.264c-2.215 0-4.048-.711-5.5-2.134-1.438-1.437-2.156-3.256-2.156-5.456 0-2.2.718-4.011 2.156-5.434 1.452-1.437 3.285-2.156 5.5-2.156 2.229 0 4.062.711 5.5 2.134 1.452 1.423 2.178 3.241 2.178 5.456 0 2.215-.726 4.033-2.178 5.456-1.438 1.423-3.271 2.134-5.5 2.134zm-3.234-4.136c.821.91 1.899 1.364 3.234 1.364 1.334 0 2.412-.455 3.234-1.364.821-.91 1.232-2.06 1.232-3.454 0-1.393-.411-2.545-1.232-3.454-.822-.91-1.9-1.364-3.234-1.364-1.335 0-2.413.455-3.234 1.364-.807.91-1.21 2.06-1.21 3.454 0 1.393.403 2.545 1.21 3.454zM239.914 29h-3.124V14.326h10.384v2.75h-7.26v3.102h7.106v2.75h-7.106V29zm12.568 0h-3.124V14.326h10.384v2.75h-7.26v3.102h7.106v2.75h-7.106V29z" fill="#00A0E8"/><path d="M91.73 48h-4.56V37.995h4.455c.86 0 1.54.235 2.04.705.51.47.765 1.085.765 1.845 0 .6-.17 1.11-.51 1.53a2.14 2.14 0 01-1.245.765c.53.08.985.36 1.365.84.39.48.585 1.02.585 1.62 0 .81-.26 1.465-.78 1.965-.51.49-1.215.735-2.115.735zm-.315-5.67c.55 0 .975-.15 1.275-.45.3-.3.45-.685.45-1.155s-.155-.855-.465-1.155c-.3-.31-.72-.465-1.26-.465h-3v3.225h3zm.06 4.56c.58 0 1.035-.155 1.365-.465.33-.31.495-.73.495-1.26 0-.49-.165-.9-.495-1.23-.32-.33-.775-.495-1.365-.495h-3.06v3.45h3.06zM102.214 48h-1.125v-.825c-.61.67-1.41 1.005-2.4 1.005-.67 0-1.26-.215-1.77-.645-.51-.43-.765-1.015-.765-1.755 0-.76.25-1.345.75-1.755.51-.42 1.105-.63 1.785-.63 1.03 0 1.83.33 2.4.99V43.08c0-.48-.17-.855-.51-1.125-.34-.27-.78-.405-1.32-.405-.85 0-1.59.335-2.22 1.005l-.525-.78c.77-.8 1.735-1.2 2.895-1.2.83 0 1.505.2 2.025.6.52.4.78 1.015.78 1.845V48zm-3.12-.63c.9 0 1.565-.3 1.995-.9v-1.365c-.43-.6-1.095-.9-1.995-.9-.52 0-.95.15-1.29.45-.33.29-.495.67-.495 1.14 0 .46.165.84.495 1.14.34.29.77.435 1.29.435zm13.745-6.615h1.125V48h-9.495v-7.245h1.125v6.255h3.06v-6.255h1.125v6.255h3.06v-6.255zm8.37 7.245h-1.125v-7.245h1.125v3.015h3.78v-3.015h1.125V48h-1.125v-3.24h-3.78V48zm12.806 0h-1.125v-.825c-.61.67-1.41 1.005-2.4 1.005-.67 0-1.26-.215-1.77-.645-.51-.43-.765-1.015-.765-1.755 0-.76.25-1.345.75-1.755.51-.42 1.105-.63 1.785-.63 1.03 0 1.83.33 2.4.99V43.08c0-.48-.17-.855-.51-1.125-.34-.27-.78-.405-1.32-.405-.85 0-1.59.335-2.22 1.005l-.525-.78c.77-.8 1.735-1.2 2.895-1.2.83 0 1.505.2 2.025.6.52.4.78 1.015.78 1.845V48zm-3.12-.63c.9 0 1.565-.3 1.995-.9v-1.365c-.43-.6-1.095-.9-1.995-.9-.52 0-.95.15-1.29.45-.33.29-.495.67-.495 1.14 0 .46.165.84.495 1.14.34.29.77.435 1.29.435zm4.521 2.475V47.07c.37-.07.66-.29.87-.66.21-.38.38-1.075.51-2.085l.465-3.57h5.04v6.255h.84v2.835h-1.125V48h-5.475v1.845h-1.125zm2.835-8.1l-.33 2.715c-.17 1.27-.52 2.12-1.05 2.55h4.305v-5.265h-2.925zm9.698 6.435c-1.08 0-1.965-.35-2.655-1.05-.69-.71-1.035-1.63-1.035-2.76 0-1.06.34-1.955 1.02-2.685.68-.74 1.53-1.11 2.55-1.11 1.07 0 1.915.37 2.535 1.11.63.73.945 1.655.945 2.775v.285h-5.865c.05.71.31 1.305.78 1.785.47.48 1.08.72 1.83.72.9 0 1.645-.305 2.235-.915l.54.735c-.74.74-1.7 1.11-2.88 1.11zm2.25-4.26a2.593 2.593 0 00-.63-1.665c-.41-.5-.995-.75-1.755-.75-.72 0-1.29.245-1.71.735-.41.49-.63 1.05-.66 1.68h4.755zm3.457 4.08h-1.44l3.225-3.96-3.21-3.285h1.425l3.12 3.195v-3.195h1.125v3.18l3.12-3.18h1.425l-3.225 3.285 3.24 3.96h-1.44l-2.61-3.255-.51.51V48h-1.125v-2.745l-.51-.51-2.61 3.255zm11.264 0h-1.125v-7.245h1.125v3.015h3.78v-3.015h1.125V48H168.7v-3.24h-3.78V48zm7.151-7.245h1.125v2.805h2.715c.72 0 1.28.215 1.68.645.4.42.6.945.6 1.575s-.205 1.16-.615 1.59c-.4.42-.955.63-1.665.63h-3.84v-7.245zm3.72 3.795h-2.595v2.46h2.595c.4 0 .705-.11.915-.33.22-.23.33-.53.33-.9s-.11-.665-.33-.885c-.21-.23-.515-.345-.915-.345zm4.71 3.45h-1.125v-7.245h1.125V48zm3.329 0h-1.08v-7.245h1.125v5.535l3.795-5.535h1.11V48h-1.125v-5.64L183.83 48zm4.56-9.39c-.65.88-1.525 1.32-2.625 1.32-1.09 0-1.97-.44-2.64-1.32l.555-.48c.52.72 1.215 1.08 2.085 1.08.88 0 1.57-.36 2.07-1.08l.555.48zM202.289 48h-1.125v-5.685L198.809 48h-.42l-2.37-5.685V48h-1.125v-7.245h1.485l2.22 5.37 2.19-5.37h1.5V48zm7.898 0h-1.125v-.825c-.61.67-1.41 1.005-2.4 1.005-.67 0-1.26-.215-1.77-.645-.51-.43-.765-1.015-.765-1.755 0-.76.25-1.345.75-1.755.51-.42 1.105-.63 1.785-.63 1.03 0 1.83.33 2.4.99V43.08c0-.48-.17-.855-.51-1.125-.34-.27-.78-.405-1.32-.405-.85 0-1.59.335-2.22 1.005l-.525-.78c.77-.8 1.735-1.2 2.895-1.2.83 0 1.505.2 2.025.6.52.4.78 1.015.78 1.845V48zm-3.12-.63c.9 0 1.565-.3 1.995-.9v-1.365c-.43-.6-1.095-.9-1.995-.9-.52 0-.95.15-1.29.45-.33.29-.495.67-.495 1.14 0 .46.165.84.495 1.14.34.29.77.435 1.29.435zm8.57.81c-1.07 0-1.94-.36-2.61-1.08-.67-.73-1.005-1.64-1.005-2.73s.335-1.995 1.005-2.715c.67-.72 1.54-1.08 2.61-1.08 1.12 0 2.005.42 2.655 1.26l-.75.69c-.46-.63-1.075-.945-1.845-.945-.76 0-1.37.26-1.83.78-.45.52-.675 1.19-.675 2.01 0 .82.225 1.495.675 2.025.46.52 1.07.78 1.83.78s1.375-.315 1.845-.945l.75.69c-.65.84-1.535 1.26-2.655 1.26zm6.677-.18h-1.125v-6.255h-2.1v-.99h5.34v.99h-2.115V48zm6.86.18c-1.08 0-1.965-.35-2.655-1.05-.69-.71-1.035-1.63-1.035-2.76 0-1.06.34-1.955 1.02-2.685.68-.74 1.53-1.11 2.55-1.11 1.07 0 1.915.37 2.535 1.11.63.73.945 1.655.945 2.775v.285h-5.865c.05.71.31 1.305.78 1.785.47.48 1.08.72 1.83.72.9 0 1.645-.305 2.235-.915l.54.735c-.74.74-1.7 1.11-2.88 1.11zm2.25-4.26a2.593 2.593 0 00-.63-1.665c-.41-.5-.995-.75-1.755-.75-.72 0-1.29.245-1.71.735-.41.49-.63 1.05-.66 1.68h4.755zm6.502 4.26c-1.02 0-1.835-.425-2.445-1.275v3.855h-1.125V40.755h1.125v1.08c.27-.38.62-.685 1.05-.915.43-.23.895-.345 1.395-.345.96 0 1.735.345 2.325 1.035.6.68.9 1.6.9 2.76 0 1.16-.3 2.085-.9 2.775-.59.69-1.365 1.035-2.325 1.035zm-.285-1.005c.71 0 1.275-.26 1.695-.78.42-.53.63-1.205.63-2.025 0-.82-.21-1.49-.63-2.01-.42-.52-.985-.78-1.695-.78-.43 0-.85.115-1.26.345-.4.22-.7.49-.9.81v3.27c.2.33.5.61.9.84.41.22.83.33 1.26.33z" fill="#9F9F9F"/><defs><clipPath id="clip0"><path fill="#fff" d="M0 0h80v60H0z"/></clipPath></defs></svg>