<svg width="80" height="60" fill="none" xmlns="http://www.w3.org/2000/svg"><g clip-path="url(#clip0)"><path fill-rule="evenodd" clip-rule="evenodd" d="M68.03 15.323c.2-1.169.39-2.363.557-3.582-20.639-15.646-46.925-15.646-67.564 0C2.637 23.508 5.89 32.604 10.29 39.71c-5.157-1.21-7.603-5.091-6.147-10.423-.158.232-.316.464-.466.696-7.87 12.073-2.654 18.475 11.48 16.319 5.598 6.368 12.36 10.647 19.656 13.715 14.874-6.253 27.535-17.53 32.576-41.327 4.517-4.113 8.285-8.309 10.889-12.305a30.784 30.784 0 001.73-2.969c-3.152 3.939-7.262 7.994-11.978 11.907zM48.072 28.89l-.15.083c-.299.166-.599.331-.898.489l-.183.1c-.5.273-.998.538-1.497.796l-.3.157-.39.207-.566.29-.017.009-.508.257-.157.083-.89.448-.2.1-.483.231-.565.274-.025.008-.391.183-.425.199-.474.224-.516.24-.324.15-.715.323-.175.074-.64.282-.242.108-.699.298-.29.125c-.217.091-.442.182-.658.273l-.233.1-.649.265-.2.083-.748.299-.25.1-.582.223-.2.075c-.24.091-.49.182-.731.273l-.242.092c-.25.09-.499.182-.74.265l-.133.05c-.241.083-.474.166-.716.248l-.133.042c-.266.091-.524.174-.782.265l-.158.033c-.274.092-.54.175-.807.266l-.266.083-.083.025-.017.008c-.224.075-.449.14-.673.207h-.009l-.258.075-.075.025-.183.058-.15.041-.1.033-.232.067-.017.008c-.216.058-.432.124-.648.182l-.109.034-.216.058-.033.008-.25.066-.233.058h-.016l-.125.033-.117.034-.207.05-.042.008-.241.058-.042.008-.208.05-.116.025-.125.033-.058.016-.183.042-.242.058-.025.008-.207.05-.1.025-.133.033-.175.041-.058.009-.233.05h-.017l-.216.04-.092.017-.141.025-.233.05-.225.042h-.008l-.216.041-.083.017-.142.024-.15.025-.075.017-.224.041-.216.042-.067.008-.15.025-.141.025-.083.017-.042.008-.174.025-.217.033-.208.033h-.016l-.2.025h-.008l-.208.025-.208.025-.05.008-.158.017h-.025l-.183.024-.183.017h-.025l-.208.025h-.042l-.166.016h-.008c-.134.017-.267.025-.391.034l-.2.016h-.033l-.167.017h-.008l-.383.025-.191.008c-.258.017-.507.025-.757.033h-.017l-.174.008c-.125 0-.242.009-.366.009h-.54c-5.24-7.521-8.294-16.626-9.9-27.048C21.97.48 43.64-.3 61.817 10.77H39.538V9.62H35.08V8.59h4.05a.93.93 0 00.666.29h2.23c.49 0 .915-.414.915-.903v-.523a.922.922 0 00-.915-.912h-2.23a.887.887 0 00-.665.29h-4.06c-.208-1.683-2.67-1.683-2.878 0h-3.985a.918.918 0 00-.665-.29h-2.23a.917.917 0 00-.915.912v.523c0 .497.416.912.916.912h2.229a.93.93 0 00.665-.29h3.968v1.02h-4.458v1.152H15.656v9.387h-.99v2.197h10.622v-2.197h-.99v-1.294h3.428v1.21h11.812v-1.21h24a134.435 134.435 0 01-15.465 10.025z" fill="#006CB6"/><path fill-rule="evenodd" clip-rule="evenodd" d="M15.148 46.285c.483.548.974 1.078 1.464 1.6 2.271-.489-1.322.913 7.42-2.114 8.743-3.018 30.53-15.133 42.226-26.094-11.63 10.282-27.818 19.908-42.217 24.46-3.261 1.037-6.23 1.742-8.893 2.148z" fill="#005591"/><path d="M19.948 24.088l-4.11 4.096c-1.139 1.136-1.696 2.512-1.68 4.138.017 1.625.6 3.001 1.73 4.137 1.14 1.136 2.521 1.708 4.152 1.725 1.622.017 3.01-.547 4.15-1.683 2.288-2.28 2.213-5.987-.058-8.25l-4.184-4.163zm3.194 12.023c1.057-2.13 1.157-4.892.333-7.114 2.021 1.981 1.863 5.323-.333 7.114z" fill="#00A0E8"/></g><defs><clipPath id="clip0"><path fill="#fff" d="M0 0h80v60H0z"/></clipPath></defs></svg>