<svg width="140" height="20" fill="none" xmlns="http://www.w3.org/2000/svg"><g clip-path="url(#clip0)"><path d="M49.948 7.672a1.061 1.061 0 00-.915-.731l-5.773-.524-2.282-5.343a1.063 1.063 0 00-1.955.001L36.74 6.417l-5.774.524a1.063 1.063 0 00-.603 1.86l4.364 3.827-1.287 5.667a1.063 1.063 0 001.58 1.149L40 16.468l4.978 2.976a1.063 1.063 0 001.582-1.148l-1.287-5.668 4.363-3.826c.321-.281.444-.724.312-1.13z" fill="#cbc1ab"/></g><g clip-path="url(#clip1)"><path d="M79.948 7.672a1.061 1.061 0 00-.915-.731l-5.773-.524-2.282-5.343a1.063 1.063 0 00-1.955.001L66.74 6.417l-5.773.524a1.063 1.063 0 00-.604 1.86l4.364 3.827-1.287 5.667a1.063 1.063 0 001.58 1.149L70 16.468l4.978 2.976a1.063 1.063 0 001.582-1.148l-1.287-5.668 4.363-3.826c.321-.281.444-.724.312-1.13z" fill="#cbc1ab"/></g><g clip-path="url(#clip2)"><path d="M109.948 7.672a1.06 1.06 0 00-.915-.731l-5.773-.524-2.282-5.343a1.065 1.065 0 00-1.955.001L96.74 6.417l-5.773.524a1.063 1.063 0 00-.604 1.86l4.364 3.827-1.287 5.667a1.063 1.063 0 001.58 1.149l4.98-2.976 4.978 2.976a1.062 1.062 0 001.581-1.148l-1.286-5.668 4.363-3.826c.321-.281.444-.724.312-1.13z" fill="#cbc1ab"/></g><g clip-path="url(#clip3)"><path d="M19.948 7.672a1.061 1.061 0 00-.915-.731l-5.773-.524-2.282-5.343a1.063 1.063 0 00-1.955.001L6.74 6.417.967 6.94A1.063 1.063 0 00.363 8.8l4.364 3.827-1.287 5.667a1.063 1.063 0 001.58 1.149L10 16.468l4.978 2.976a1.063 1.063 0 001.582-1.148l-1.287-5.668 4.363-3.826c.321-.281.444-.724.312-1.13z" fill="#cbc1ab"/></g><g clip-path="url(#clip4)"><path d="M139.948 7.672a1.06 1.06 0 00-.915-.731l-5.773-.524-2.282-5.343a1.065 1.065 0 00-1.955.001l-2.283 5.342-5.773.524a1.063 1.063 0 00-.604 1.86l4.364 3.827-1.287 5.667a1.062 1.062 0 001.581 1.149L130 16.468l4.978 2.976a1.062 1.062 0 001.581-1.148l-1.286-5.668 4.363-3.826c.321-.281.444-.724.312-1.13z" fill="#cbc1ab"/></g><defs><clipPath id="clip0"><path fill="#fff" transform="translate(30)" d="M0 0h20v20H0z"/></clipPath><clipPath id="clip1"><path fill="#fff" transform="translate(60)" d="M0 0h20v20H0z"/></clipPath><clipPath id="clip2"><path fill="#fff" transform="translate(90)" d="M0 0h20v20H0z"/></clipPath><clipPath id="clip3"><path fill="#fff" d="M0 0h20v20H0z"/></clipPath><clipPath id="clip4"><path fill="#fff" transform="translate(120)" d="M0 0h20v20H0z"/></clipPath></defs></svg>