<svg width="70" height="70" fill="none" xmlns="http://www.w3.org/2000/svg"><g clip-path="url(#clip0)" fill="#00A0E8"><path d="M28.986 41.014c-6.681-6.681-8.19-13.363-8.53-16.04a2.4 2.4 0 01.689-2.008l5.407-5.405a2.414 2.414 0 00.34-2.987L18.283 1.207a2.414 2.414 0 00-3.127-.88L1.336 6.836A2.4 2.4 0 00.008 9.234c.725 6.88 3.724 23.79 20.343 40.41 16.619 16.62 33.527 19.619 40.41 20.343a2.4 2.4 0 002.398-1.328l6.509-13.82a2.414 2.414 0 00-.875-3.122L55.425 43.11a2.414 2.414 0 00-2.987.338l-5.404 5.407a2.4 2.4 0 01-2.008.69c-2.677-.341-9.359-1.85-16.04-8.531z"/><path d="M55.517 37.414A2.414 2.414 0 0153.103 35c-.01-9.994-8.11-18.092-18.103-18.103a2.414 2.414 0 010-4.828C47.659 12.083 57.917 22.341 57.931 35a2.414 2.414 0 01-2.414 2.414z"/><path d="M67.586 37.414A2.414 2.414 0 0165.172 35C65.154 18.344 51.656 4.846 35 4.828A2.414 2.414 0 1135 0c19.321.021 34.979 15.679 35 35a2.414 2.414 0 01-2.414 2.414z"/></g><defs><clipPath id="clip0"><path fill="#fff" d="M0 0h70v70H0z"/></clipPath></defs></svg>