<svg width="890" height="903" fill="none" xmlns="http://www.w3.org/2000/svg"><path fill-rule="evenodd" clip-rule="evenodd" d="M134.724 145.823C193.765 78.873 262.328.503 351.591.173c88.229-.327 135.232 104.893 214.296 144.053 80.595 39.917 189.781 17.685 248.976 85.398 63.398 72.522 89.977 181.078 65.401 274.216-23.893 90.551-124.182 130.903-189.902 197.621-66.431 67.44-105.101 171.538-196.817 194.973-93.636 23.925-188.125-28.257-272.712-75.002-82.041-45.338-163.995-100.604-200.94-186.75-35.843-83.573-14.045-177.517 6.75-266.042 19.35-82.378 52.11-159.352 108.081-222.817z" fill="#D6F2FF"/></svg>