<svg width="528" height="528" fill="none" xmlns="http://www.w3.org/2000/svg"><path fill-rule="evenodd" clip-rule="evenodd" d="M141.352 133.833c26.267-29.785 56.77-64.651 96.482-64.798 39.253-.145 60.164 46.666 95.339 64.088 35.856 17.759 84.432 7.868 110.767 37.993 28.205 32.264 40.03 80.559 29.096 121.996-10.63 40.285-55.247 58.237-84.485 87.92-29.555 30.003-46.759 76.315-87.563 86.741-41.657 10.644-83.694-12.571-121.326-33.367-36.5-20.171-72.96-44.758-89.397-83.084-15.946-37.181-6.248-78.976 3.003-118.359 8.609-36.65 23.184-70.895 48.084-99.13z" fill="#E6F7FF"/></svg>