<svg width="945" height="730" fill="none" xmlns="http://www.w3.org/2000/svg"><path fill-rule="evenodd" clip-rule="evenodd" d="M1019.15 1378.09c-116.979 78.12-268.142 42.32-408.578 50.31-148.762 8.46-306.941 72.11-436.064-2.25C42.315 1350.02-34.663 1195.14-56.6 1044.18-76.705 905.82 34.46 789.66 62.104 652.612 94.726 490.886 1.247 288.61 119.095 173.151 235.294 59.307 435.88 91.458 593.399 132.087 727.36 166.641 808.52 289.757 914.754 378.38c95.206 79.419 212.626 133.902 267.606 245.027 59.75 120.796 75.8 259.84 47.32 391.563-30.32 140.18-91.26 283.48-210.53 363.12z" fill="#C1ECFF"/></svg>