<svg width="751" height="1187" fill="none" xmlns="http://www.w3.org/2000/svg"><path fill-rule="evenodd" clip-rule="evenodd" d="M-118.276 300.823c59.041-66.949 127.604-145.32 216.867-145.65 88.229-.327 135.232 104.894 214.296 144.053 80.595 39.917 189.781 17.686 248.976 85.398 63.398 72.522 89.977 181.078 65.401 274.216-23.893 90.551-124.182 130.903-189.902 197.621-66.431 67.44-105.101 171.539-196.817 194.969-93.636 23.93-188.125-28.25-272.712-74.998-82.041-45.338-163.995-100.604-200.941-186.75-35.842-83.573-14.044-177.517 6.75-266.042 19.351-82.378 52.112-159.352 108.082-222.817z" fill="#E6F7FF"/></svg>