<svg width="350" height="274" fill="none" xmlns="http://www.w3.org/2000/svg"><path fill-rule="evenodd" clip-rule="evenodd" d="M34.352 64.832C60.62 35.048 91.122.182 130.834.034c39.253-.145 60.164 46.666 95.339 64.088 35.856 17.759 84.432 7.868 110.767 37.993 28.205 32.264 40.03 80.56 29.096 121.996-10.63 40.285-55.247 58.238-84.485 87.92-29.555 30.003-46.759 76.316-87.563 86.742-41.657 10.644-83.694-12.572-121.326-33.368-36.5-20.17-72.96-44.758-89.397-83.084-15.946-37.18-6.248-78.975 3.003-118.359 8.609-36.649 23.184-70.894 48.084-99.13z" fill="#E6F7FF"/></svg>